<mxfile host="app.diagrams.net" agent="Mozilla/5.0 (Windows NT 10.0; Win64; x64) AppleWebKit/537.36 (KHTML, like Gecko) Chrome/141.0.0.0 Safari/537.36" version="28.2.8">
  <diagram name="Página-1" id="EfPAfmn_zZndjUeXvV2h">
    <mxGraphModel dx="1470" dy="844" grid="1" gridSize="10" guides="1" tooltips="1" connect="1" arrows="1" fold="1" page="1" pageScale="1" pageWidth="827" pageHeight="1169" math="0" shadow="0">
      <root>
        <mxCell id="0" />
        <mxCell id="1" parent="0" />
        <object placeholders="1" c4Name="Visitante" c4Type="Person" c4Description="Usuario no logueado. Explora películas, reseñas y perfiles." label="&lt;font style=&quot;font-size: 16px&quot;&gt;&lt;b&gt;%c4Name%&lt;/b&gt;&lt;/font&gt;&lt;div&gt;[%c4Type%]&lt;/div&gt;&lt;br&gt;&lt;div&gt;&lt;font style=&quot;font-size: 14px&quot;&gt;&lt;font&gt;%c4Description%&lt;/font&gt;&lt;/font&gt;&lt;/div&gt;" id="gpD5D_EOnzXHBLXC5Qpt-2">
          <mxCell style="html=1;fontSize=11;dashed=0;fillColor=#dae8fc;strokeColor=#6c8ebf;shape=mxgraph.c4.person2;align=center;metaEdit=1;points=[[0.5,0,0],[1,0.5,0],[1,0.75,0],[0.75,1,0],[0.5,1,0],[0.25,1,0],[0,0.75,0],[0,0.5,0]];resizable=0;shadow=0;spacingTop=0;whiteSpace=wrap;textShadow=1;strokeWidth=3;" parent="1" vertex="1">
            <mxGeometry x="40" y="20" width="200" height="180" as="geometry" />
          </mxCell>
        </object>
        <mxCell id="gpD5D_EOnzXHBLXC5Qpt-9" style="edgeStyle=orthogonalEdgeStyle;rounded=0;orthogonalLoop=1;jettySize=auto;html=1;exitX=0.5;exitY=1;exitDx=0;exitDy=0;exitPerimeter=0;strokeColor=light-dark(#000000,#FFFFFF);" parent="1" source="gpD5D_EOnzXHBLXC5Qpt-3" edge="1">
          <mxGeometry relative="1" as="geometry">
            <mxPoint x="419.61538461538476" y="320" as="targetPoint" />
          </mxGeometry>
        </mxCell>
        <mxCell id="gpD5D_EOnzXHBLXC5Qpt-11" value="&lt;font style=&quot;font-size: 14px;&quot;&gt;&amp;nbsp;Usa&amp;nbsp;&lt;/font&gt;" style="edgeLabel;html=1;align=center;verticalAlign=middle;resizable=0;points=[];labelBackgroundColor=light-dark(#FFFFFF,#FFFFFF);fontColor=light-dark(#000000,#000000);" parent="gpD5D_EOnzXHBLXC5Qpt-9" vertex="1" connectable="0">
          <mxGeometry x="-0.1992" y="3" relative="1" as="geometry">
            <mxPoint x="-3" y="2" as="offset" />
          </mxGeometry>
        </mxCell>
        <object placeholders="1" c4Name="Miembro" c4Type="Person" c4Description="Puede crear y modificar reseñas, y editar su perfil." label="&lt;font style=&quot;font-size: 16px&quot;&gt;&lt;b&gt;%c4Name%&lt;/b&gt;&lt;/font&gt;&lt;div&gt;[%c4Type%]&lt;/div&gt;&lt;br&gt;&lt;div&gt;&lt;font style=&quot;font-size: 14px&quot;&gt;&lt;font&gt;%c4Description%&lt;/font&gt;&lt;/font&gt;&lt;/div&gt;" id="gpD5D_EOnzXHBLXC5Qpt-3">
          <mxCell style="html=1;fontSize=11;dashed=0;fillColor=#dae8fc;strokeColor=#6c8ebf;shape=mxgraph.c4.person2;align=center;metaEdit=1;points=[[0.5,0,0],[1,0.5,0],[1,0.75,0],[0.75,1,0],[0.5,1,0],[0.25,1,0],[0,0.75,0],[0,0.5,0]];resizable=0;shadow=0;spacingTop=0;whiteSpace=wrap;textShadow=1;strokeWidth=3;" parent="1" vertex="1">
            <mxGeometry x="320" y="20" width="200" height="180" as="geometry" />
          </mxCell>
        </object>
        <object placeholders="1" c4Name="Moderador" c4Type="Person" c4Description="Puede eliminar reseñas de otros usuarios." label="&lt;font style=&quot;font-size:16px&quot;&gt;&lt;b&gt;%c4Name%&lt;/b&gt;&lt;/font&gt;&lt;div&gt;[%c4Type%]&lt;/div&gt;&lt;br&gt;&lt;div&gt;&lt;font style=&quot;font-size: 14px&quot;&gt;&lt;font&gt;%c4Description%&lt;/font&gt;&lt;/font&gt;&lt;/div&gt;" id="gpD5D_EOnzXHBLXC5Qpt-4">
          <mxCell style="html=1;fontSize=11;dashed=0;fillColor=#dae8fc;strokeColor=#6c8ebf;shape=mxgraph.c4.person2;align=center;metaEdit=1;points=[[0.5,0,0],[1,0.5,0],[1,0.75,0],[0.75,1,0],[0.5,1,0],[0.25,1,0],[0,0.75,0],[0,0.5,0]];resizable=0;shadow=0;spacingTop=0;whiteSpace=wrap;textShadow=1;strokeWidth=3;" parent="1" vertex="1">
            <mxGeometry x="600" y="20" width="200" height="180" as="geometry" />
          </mxCell>
        </object>
        <mxCell id="gpD5D_EOnzXHBLXC5Qpt-17" style="edgeStyle=orthogonalEdgeStyle;rounded=0;orthogonalLoop=1;jettySize=auto;html=1;exitX=0.5;exitY=1;exitDx=0;exitDy=0;strokeColor=light-dark(#000000,#FFFFFF);" parent="1" source="gpD5D_EOnzXHBLXC5Qpt-5" edge="1">
          <mxGeometry relative="1" as="geometry">
            <mxPoint x="420.181818181818" y="640" as="targetPoint" />
          </mxGeometry>
        </mxCell>
        <mxCell id="gpD5D_EOnzXHBLXC5Qpt-18" value="&lt;font style=&quot;font-size: 14px;&quot;&gt;&amp;nbsp;Consulta información&amp;nbsp;&lt;/font&gt;&lt;div&gt;&lt;font style=&quot;font-size: 14px;&quot;&gt;de películas&lt;/font&gt;&lt;/div&gt;" style="edgeLabel;html=1;align=center;verticalAlign=middle;resizable=0;points=[];labelBackgroundColor=light-dark(#FFFFFF,#FFFFFF);fontColor=light-dark(#000000,#000000);" parent="gpD5D_EOnzXHBLXC5Qpt-17" vertex="1" connectable="0">
          <mxGeometry x="-0.1893" y="1" relative="1" as="geometry">
            <mxPoint as="offset" />
          </mxGeometry>
        </mxCell>
        <mxCell id="gpD5D_EOnzXHBLXC5Qpt-5" value="&lt;font style=&quot;font-size: 24px;&quot;&gt;&lt;b style=&quot;&quot;&gt;Common Room&lt;/b&gt;&lt;/font&gt;&lt;div&gt;&lt;font style=&quot;font-size: 12px;&quot;&gt;[System]&lt;/font&gt;&lt;/div&gt;&lt;div&gt;&lt;font style=&quot;font-size: 15px;&quot;&gt;&lt;br&gt;&lt;/font&gt;&lt;/div&gt;&lt;div&gt;&lt;span style=&quot;font-size: 14px;&quot;&gt;Plataforma tipo red social donde los usuarios pueden publicar reseñas,&amp;nbsp;&lt;/span&gt;&lt;/div&gt;&lt;div&gt;&lt;span style=&quot;font-size: 14px;&quot;&gt;calificar películas y explorar reseñas de otros usuarios.&lt;/span&gt;&lt;/div&gt;" style="rounded=1;whiteSpace=wrap;html=1;fillColor=#d5e8d4;strokeColor=#82b366;strokeWidth=3;" parent="1" vertex="1">
          <mxGeometry x="80" y="360" width="680" height="160" as="geometry" />
        </mxCell>
        <mxCell id="gpD5D_EOnzXHBLXC5Qpt-6" value="&lt;div&gt;&lt;font style=&quot;font-size: 18px;&quot;&gt;&lt;b&gt;The Movie Database&lt;/b&gt;&lt;/font&gt;&lt;/div&gt;&lt;div&gt;&lt;font style=&quot;font-size: 12px;&quot;&gt;[External System]&lt;/font&gt;&lt;/div&gt;&lt;div&gt;&lt;font style=&quot;font-size: 15px;&quot;&gt;&lt;br&gt;&lt;/font&gt;&lt;/div&gt;&lt;div&gt;&lt;span style=&quot;font-size: 14px;&quot;&gt;API externa que provee información sobre las películas (títulos, pósters, sinopsis, etc.).&lt;/span&gt;&lt;/div&gt;" style="rounded=1;whiteSpace=wrap;html=1;fillColor=#f5f5f5;fontColor=#333333;strokeColor=#666666;strokeWidth=3;" parent="1" vertex="1">
          <mxGeometry x="297.5" y="680" width="245" height="150" as="geometry" />
        </mxCell>
        <mxCell id="gpD5D_EOnzXHBLXC5Qpt-12" style="edgeStyle=orthogonalEdgeStyle;rounded=0;orthogonalLoop=1;jettySize=auto;html=1;exitX=0.5;exitY=1;exitDx=0;exitDy=0;exitPerimeter=0;strokeColor=light-dark(#000000,#FFFFFF);" parent="1" edge="1">
          <mxGeometry relative="1" as="geometry">
            <mxPoint x="139.37" y="320" as="targetPoint" />
            <mxPoint x="139.75461538461525" y="200" as="sourcePoint" />
          </mxGeometry>
        </mxCell>
        <mxCell id="gpD5D_EOnzXHBLXC5Qpt-13" value="&lt;font style=&quot;font-size: 14px;&quot;&gt;&amp;nbsp;Usa&amp;nbsp;&lt;/font&gt;" style="edgeLabel;html=1;align=center;verticalAlign=middle;resizable=0;points=[];labelBackgroundColor=light-dark(#FFFFFF,#FFFFFF);fontColor=light-dark(#000000,#000000);" parent="gpD5D_EOnzXHBLXC5Qpt-12" vertex="1" connectable="0">
          <mxGeometry x="-0.1992" y="3" relative="1" as="geometry">
            <mxPoint x="-3" y="2" as="offset" />
          </mxGeometry>
        </mxCell>
        <mxCell id="gpD5D_EOnzXHBLXC5Qpt-14" style="edgeStyle=orthogonalEdgeStyle;rounded=0;orthogonalLoop=1;jettySize=auto;html=1;exitX=0.5;exitY=1;exitDx=0;exitDy=0;exitPerimeter=0;strokeColor=light-dark(#000000,#FFFFFF);" parent="1" edge="1">
          <mxGeometry relative="1" as="geometry">
            <mxPoint x="699.38" y="320" as="targetPoint" />
            <mxPoint x="699.7646153846152" y="200" as="sourcePoint" />
          </mxGeometry>
        </mxCell>
        <mxCell id="gpD5D_EOnzXHBLXC5Qpt-15" value="&lt;font style=&quot;font-size: 14px;&quot;&gt;&amp;nbsp;Usa&amp;nbsp;&lt;/font&gt;" style="edgeLabel;html=1;align=center;verticalAlign=middle;resizable=0;points=[];labelBackgroundColor=light-dark(#FFFFFF,#FFFFFF);fontColor=light-dark(#000000,#000000);" parent="gpD5D_EOnzXHBLXC5Qpt-14" vertex="1" connectable="0">
          <mxGeometry x="-0.1992" y="3" relative="1" as="geometry">
            <mxPoint x="-3" y="2" as="offset" />
          </mxGeometry>
        </mxCell>
      </root>
    </mxGraphModel>
  </diagram>
</mxfile>
